<?xml version="1.0" standalone="no"?>
<!DOCTYPE svg PUBLIC "-//W3C//DTD SVG 20010904//EN"
 "http://www.w3.org/TR/2001/REC-SVG-20010904/DTD/svg10.dtd">
<svg version="1.0" xmlns="http://www.w3.org/2000/svg"
 width="2048.000000pt" height="2048.000000pt" viewBox="0 0 2048.000000 2048.000000"
 preserveAspectRatio="xMidYMid meet">
<metadata>
Created by potrace 1.11, written by Peter Selinger 2001-2013
</metadata>
<g transform="translate(0.000000,2048.000000) scale(0.100000,-0.100000)"
fill="#000000" stroke="none">
<path d="M0 10240 l0 -10240 10240 0 10240 0 0 10240 0 10240 -10240 0 -10240
0 0 -10240z m6515 9902 c-3 -3 -11 0 -18 7 -9 10 -8 11 6 5 10 -3 15 -9 12
-12z m7022 -14 c-3 -8 -6 -5 -6 6 -1 11 2 17 5 13 3 -3 4 -12 1 -19z m-3237
-278 c0 -5 -2 -10 -4 -10 -3 0 -8 5 -11 10 -3 6 -1 10 4 10 6 0 11 -4 11 -10z
m-1868 -222 c-9 -9 -12 -7 -12 12 0 19 3 21 12 12 9 -9 9 -15 0 -24z m-819
-203 c-3 -9 -8 -14 -10 -11 -3 3 -2 9 2 15 9 16 15 13 8 -4z m57 1 c0 -11 -19
-15 -25 -6 -3 5 1 10 9 10 9 0 16 -2 16 -4z m764 -21 c3 -8 1 -15 -4 -15 -6 0
-10 7 -10 15 0 8 2 15 4 15 2 0 6 -7 10 -15z m-149 -165 c3 -6 -1 -7 -9 -4
-18 7 -21 14 -7 14 6 0 13 -4 16 -10z m-1565 -153 c0 -2 -10 -12 -21 -23 -22
-19 -22 -19 -8 4 12 19 29 30 29 19z m1195 -57 c3 -5 1 -10 -4 -10 -6 0 -11 5
-11 10 0 6 2 10 4 10 3 0 8 -4 11 -10z m-716 -60 l10 -30 -24 17 c-17 13 -20
21 -13 31 14 16 15 16 27 -18z m16 -70 c-3 -5 -11 -10 -16 -10 -6 0 -7 5 -4
10 3 6 11 10 16 10 6 0 7 -4 4 -10z m2115 -30 c8 -16 8 -20 -4 -20 -9 0 -14 8
-13 20 1 11 2 20 4 20 1 0 7 -9 13 -20z m-2050 -10 c0 -5 -2 -10 -4 -10 -3 0
-8 5 -11 10 -3 6 -1 10 4 10 6 0 11 -4 11 -10z m615 -29 c3 -6 -3 -9 -14 -8
-11 0 -17 5 -15 9 7 11 22 10 29 -1z m-585 -5 c0 -3 -4 -8 -10 -11 -5 -3 -10
-1 -10 4 0 6 5 11 10 11 6 0 10 -2 10 -4z m2025 -46 c3 -5 -1 -10 -10 -10 -9
0 -13 5 -10 10 3 6 8 10 10 10 2 0 7 -4 10 -10z m-1415 -101 c0 -6 -4 -7 -10
-4 -5 3 -10 11 -10 16 0 6 5 7 10 4 6 -3 10 -11 10 -16z m-432 -13 c-10 -7
-15 -16 -11 -19 9 -10 -20 -8 -36 2 -10 6 -6 11 15 19 40 14 52 14 32 -2z
m-373 -24 c-3 -3 -11 0 -18 7 -9 10 -8 11 6 5 10 -3 15 -9 12 -12z m855 14 c0
-3 -4 -8 -10 -11 -5 -3 -10 -1 -10 4 0 6 5 11 10 11 6 0 10 -2 10 -4z m80 -50
c0 -3 -4 -8 -10 -11 -5 -3 -10 -1 -10 4 0 6 5 11 10 11 6 0 10 -2 10 -4z
m-407 -87 c-17 -17 -37 -1 -22 17 8 10 15 12 23 4 7 -7 7 -13 -1 -21z m4337
11 c0 -5 -2 -10 -4 -10 -3 0 -8 5 -11 10 -3 6 -1 10 4 10 6 0 11 -4 11 -10z
m998 -45 c-3 -3 -9 2 -12 12 -6 14 -5 15 5 6 7 -7 10 -15 7 -18z m-5338 5 c0
-5 -5 -10 -11 -10 -5 0 -7 5 -4 10 3 6 8 10 11 10 2 0 4 -4 4 -10z m-782 -65
c-3 -3 -9 2 -12 12 -6 14 -5 15 5 6 7 -7 10 -15 7 -18z m926 -46 c-13 -14 -21
-16 -35 -8 -25 13 -24 22 0 14 12 -3 21 0 25 10 3 9 11 13 17 10 7 -5 5 -13
-7 -26z m531 -59 c3 -6 -1 -7 -9 -4 -18 7 -21 14 -7 14 6 0 13 -4 16 -10z
m-805 -36 c0 -8 -7 -14 -15 -14 -8 0 -15 2 -15 4 0 2 -3 11 -6 19 -4 12 0 14
15 10 12 -3 21 -12 21 -19z m1710 22 c0 -2 -7 -6 -15 -10 -8 -3 -15 -1 -15 4
0 6 7 10 15 10 8 0 15 -2 15 -4z m-1370 -16 c0 -5 -2 -10 -4 -10 -3 0 -8 5
-11 10 -3 6 -1 10 4 10 6 0 11 -4 11 -10z m1410 -40 c0 -5 -2 -10 -4 -10 -3 0
-8 5 -11 10 -3 6 -1 10 4 10 6 0 11 -4 11 -10z m-1362 -12 c-7 -19 -38 -22
-38 -4 0 10 9 16 21 16 12 0 19 -5 17 -12z m-898 -18 c0 -5 -5 -10 -11 -10 -5
0 -7 5 -4 10 3 6 8 10 11 10 2 0 4 -4 4 -10z m548 -2 c-6 -18 -28 -21 -28 -4
0 9 7 16 16 16 9 0 14 -5 12 -12z m1787 -28 c3 -6 -1 -7 -9 -4 -18 7 -21 14
-7 14 6 0 13 -4 16 -10z m-800 -40 c-3 -5 -10 -10 -16 -10 -5 0 -9 5 -9 10 0
6 7 10 16 10 8 0 12 -4 9 -10z m-1395 -20 c0 -5 -2 -10 -4 -10 -3 0 -8 5 -11
10 -3 6 -1 10 4 10 6 0 11 -4 11 -10z m556 -2 c4 -7 3 -9 -1 -5 -5 4 -15 -3
-23 -15 -9 -15 -11 -17 -8 -5 3 10 6 23 6 28 0 13 18 11 26 -3z m434 -48 c0
-5 -7 -10 -16 -10 -8 0 -12 5 -9 10 3 6 10 10 16 10 5 0 9 -4 9 -10z m2215
-49 c2 -28 -12 -17 -18 15 -3 18 -1 22 6 15 6 -6 11 -20 12 -30z m-1785 19 c0
-5 -2 -10 -4 -10 -3 0 -8 5 -11 10 -3 6 -1 10 4 10 6 0 11 -4 11 -10z m3060 0
c0 -5 -5 -10 -11 -10 -5 0 -7 5 -4 10 3 6 8 10 11 10 2 0 4 -4 4 -10z m-880
-10 c0 -5 -7 -7 -15 -4 -8 4 -15 8 -15 10 0 2 7 4 15 4 8 0 15 -4 15 -10z
m1705 -111 c11 -17 -1 -21 -15 -4 -8 9 -8 15 -2 15 6 0 14 -5 17 -11z m-4550
-61 c-1 -12 -8 -24 -15 -26 -8 -3 -11 1 -7 10 3 9 0 21 -6 27 -8 8 -6 11 9 11
15 0 20 -6 19 -22z m82 -24 c-3 -3 -12 -4 -19 -1 -8 3 -5 6 6 6 11 1 17 -2 13
-5z m363 -14 c0 -5 -2 -10 -4 -10 -3 0 -8 5 -11 10 -3 6 -1 10 4 10 6 0 11 -4
11 -10z m-13 -42 c-3 -8 -6 -5 -6 6 -1 11 2 17 5 13 3 -3 4 -12 1 -19z m-1920
-50 c-3 -8 -6 -5 -6 6 -1 11 2 17 5 13 3 -3 4 -12 1 -19z m2923 -28 c18 -12 2
-12 -25 0 -13 6 -15 9 -5 9 8 0 22 -4 30 -9z m-770 -72 c0 -5 -4 -8 -10 -8 -5
0 -10 10 -10 23 0 18 2 19 10 7 5 -8 10 -18 10 -22z m455 22 c-3 -5 -10 -10
-16 -10 -5 0 -9 5 -9 10 0 6 7 10 16 10 8 0 12 -4 9 -10z m835 -14 c0 -2 -7
-9 -15 -16 -12 -10 -15 -10 -15 4 0 9 7 16 15 16 8 0 15 -2 15 -4z m-2230 -26
c0 -5 -5 -10 -11 -10 -5 0 -7 5 -4 10 3 6 8 10 11 10 2 0 4 -4 4 -10z m570 -6
c0 -2 -9 -4 -21 -4 -11 0 -18 4 -14 10 5 8 35 3 35 -6z m-450 -74 c0 -5 -4
-10 -10 -10 -5 0 -10 -8 -10 -17 0 -15 -2 -15 -9 -4 -6 9 -5 19 2 27 14 16 27
18 27 4z m2184 -11 c-3 -5 -10 -7 -15 -3 -5 3 -7 10 -3 15 3 5 10 7 15 3 5 -3
7 -10 3 -15z m-2084 -59 c0 -5 -2 -10 -4 -10 -3 0 -8 5 -11 10 -3 6 -1 10 4
10 6 0 11 -4 11 -10z m887 -22 c-3 -8 -6 -5 -6 6 -1 11 2 17 5 13 3 -3 4 -12
1 -19z m6170 -15 c-3 -3 -11 -2 -17 2 -8 5 -7 11 2 22 12 15 13 14 16 -1 2
-10 1 -20 -1 -23z m-5359 13 c-7 -8 -17 -12 -22 -9 -4 3 -2 9 5 14 22 13 31
11 17 -5z m-715 -96 c-7 -28 -13 -25 -13 6 0 14 4 23 9 20 5 -3 7 -15 4 -26z
m-303 -70 c0 -5 -2 -10 -4 -10 -3 0 -8 5 -11 10 -3 6 -1 10 4 10 6 0 11 -4 11
-10z m6566 -38 c-4 -3 -11 0 -16 8 -15 24 -11 33 6 15 9 -9 13 -19 10 -23z
m-5676 -24 c0 -18 -2 -20 -9 -8 -6 8 -7 18 -5 22 9 14 14 9 14 -14z m5725 2
c3 -5 1 -10 -4 -10 -6 0 -11 5 -11 10 0 6 2 10 4 10 3 0 8 -4 11 -10z m-3527
-38 c2 -7 -2 -10 -12 -6 -9 3 -16 11 -16 16 0 13 23 5 28 -10z m-2076 -74 c-8
-8 -9 -4 -5 13 4 13 8 18 11 10 2 -7 -1 -18 -6 -23z m-847 12 c3 -5 2 -10 -4
-10 -5 0 -13 5 -16 10 -3 6 -2 10 4 10 5 0 13 -4 16 -10z m375 -25 c0 -8 -4
-15 -10 -15 -5 0 -10 5 -10 11 0 6 -7 9 -15 5 -8 -3 -15 -1 -15 4 0 6 11 10
25 10 16 0 25 -6 25 -15z m2230 -13 c0 -15 -2 -15 -10 -2 -13 20 -13 33 0 25
6 -3 10 -14 10 -23z m3995 -2 c3 -5 1 -10 -4 -10 -6 0 -11 5 -11 10 0 6 2 10
4 10 3 0 8 -4 11 -10z m-9305 -15 c-7 -9 -15 -13 -17 -11 -7 7 7 26 19 26 6 0
6 -6 -2 -15z m675 -5 c3 -5 1 -10 -4 -10 -6 0 -11 5 -11 10 0 6 2 10 4 10 3 0
8 -4 11 -10z m640 -8 c-3 -3 -11 0 -18 7 -9 10 -8 11 6 5 10 -3 15 -9 12 -12z
m1822 -4 c-3 -8 -6 -5 -6 6 -1 11 2 17 5 13 3 -3 4 -12 1 -19z m865 10 c-17
-17 -15 -28 6 -21 16 6 16 5 0 -13 -25 -26 -43 -6 -22 24 8 12 18 22 22 22 3
0 1 -5 -6 -12z m-2857 -8 c3 -5 -1 -10 -9 -10 -8 0 -18 5 -21 10 -3 6 1 10 9
10 8 0 18 -4 21 -10z m487 -9 c-12 -7 -62 -4 -62 5 0 2 17 4 38 4 23 0 32 -3
24 -9z m7733 -41 c-3 -5 -13 -6 -21 -3 -12 4 -13 8 -3 14 15 9 32 2 24 -11z
m-5260 -28 c-3 -3 -11 0 -18 7 -9 10 -8 11 6 5 10 -3 15 -9 12 -12z m-1251
-33 c-3 -5 -10 -7 -15 -3 -5 3 -7 10 -3 15 3 5 10 7 15 3 5 -3 7 -10 3 -15z
m2061 11 c3 -5 1 -10 -4 -10 -6 0 -11 5 -11 10 0 6 2 10 4 10 3 0 8 -4 11 -10z
m-2990 -20 c-3 -5 -11 -10 -16 -10 -6 0 -7 5 -4 10 3 6 11 10 16 10 6 0 7 -4
4 -10z m1305 -6 c0 -2 -7 -4 -15 -4 -8 0 -15 4 -15 10 0 5 7 7 15 4 8 -4 15
-8 15 -10z m40 -48 c0 -3 -4 -8 -10 -11 -5 -3 -10 -1 -10 4 0 6 5 11 10 11 6
0 10 -2 10 -4z m73 -26 c3 -11 1 -18 -4 -14 -5 3 -9 12 -9 20 0 20 7 17 13 -6z
m-856 4 c-3 -3 -12 -4 -19 -1 -8 3 -5 6 6 6 11 1 17 -2 13 -5z m813 -39 c0 -8
-4 -15 -10 -15 -5 0 -10 7 -10 15 0 8 5 15 10 15 6 0 10 -7 10 -15z m50 -55
c0 -5 -2 -10 -4 -10 -3 0 -8 5 -11 10 -3 6 -1 10 4 10 6 0 11 -4 11 -10z m82
-28 c-8 -5 -10 -16 -6 -27 5 -13 4 -16 -4 -11 -19 11 -14 46 6 46 12 0 14 -2
4 -8z m52 -27 c-4 -8 -11 -15 -16 -15 -6 0 -5 6 2 15 7 8 14 15 16 15 2 0 1
-7 -2 -15z m5901 -85 c3 -5 1 -10 -4 -10 -6 0 -11 5 -11 10 0 6 2 10 4 10 3 0
8 -4 11 -10z m-6625 -45 c0 -11 -29 -11 -33 -1 -4 10 1 12 14 9 10 -3 19 -7
19 -8z m1350 0 c0 -1 -7 -8 -15 -15 -13 -10 -15 -9 -15 8 0 15 5 20 15 16 8
-4 15 -7 15 -9z m3100 -29 c0 -2 -7 -7 -16 -10 -8 -3 -12 -2 -9 4 6 10 25 14
25 6z m-3520 -26 c0 -5 -4 -10 -10 -10 -5 0 -10 5 -10 10 0 6 5 10 10 10 6 0
10 -4 10 -10z m30 -105 c0 -8 -4 -15 -10 -15 -5 0 -7 7 -4 15 4 8 8 15 10 15
2 0 4 -7 4 -15z m-4925 -43 c-3 -3 -11 0 -18 7 -9 10 -8 11 6 5 10 -3 15 -9
12 -12z m890 -2 c3 -5 1 -10 -4 -10 -6 0 -11 5 -11 10 0 6 2 10 4 10 3 0 8 -4
11 -10z m1721 -17 c-7 -7 -26 7 -26 19 0 6 6 6 15 -2 9 -7 13 -15 11 -17z
m-1522 -8 c-4 -8 -10 -12 -15 -9 -11 6 -2 24 11 24 5 0 7 -7 4 -15z m3946 -4
c0 -12 -20 -25 -27 -18 -7 7 6 27 18 27 5 0 9 -4 9 -9z m-2003 -7 c-3 -3 -12
-4 -19 -1 -8 3 -5 6 6 6 11 1 17 -2 13 -5z m-1934 -99 c-3 -9 -8 -14 -10 -11
-3 3 -2 9 2 15 9 16 15 13 8 -4z m6794 -7 c-3 -8 -6 -5 -6 6 -1 11 2 17 5 13
3 -3 4 -12 1 -19z m-2467 -48 c8 -15 8 -20 -3 -20 -7 0 -13 9 -13 20 0 11 1
20 3 20 1 0 7 -9 13 -20z m-4345 -10 c3 -5 2 -10 -4 -10 -5 0 -13 5 -16 10 -3
6 -2 10 4 10 5 0 13 -4 16 -10z m2915 -51 c0 -6 -4 -7 -10 -4 -5 3 -10 11 -10
16 0 6 5 7 10 4 6 -3 10 -11 10 -16z m-3996 -4 c3 -8 1 -15 -4 -15 -6 0 -10 7
-10 15 0 8 2 15 4 15 2 0 6 -7 10 -15z m5987 -82 c13 -16 12 -17 -3 -4 -17 13
-22 21 -14 21 2 0 10 -8 17 -17z m-5321 -104 c0 -6 -4 -7 -10 -4 -5 3 -10 11
-10 16 0 6 5 7 10 4 6 -3 10 -11 10 -16z m430 17 c0 -3 -4 -8 -10 -11 -5 -3
-10 -1 -10 4 0 6 5 11 10 11 6 0 10 -2 10 -4z m8570 -11 c0 -8 -4 -15 -10 -15
-5 0 -10 7 -10 15 0 8 5 15 10 15 6 0 10 -7 10 -15z m-8060 -15 c0 -5 -2 -10
-4 -10 -3 0 -8 5 -11 10 -3 6 -1 10 4 10 6 0 11 -4 11 -10z m5050 -10 c0 -5
-4 -10 -10 -10 -5 0 -10 5 -10 10 0 6 5 10 10 10 6 0 10 -4 10 -10z m2180 6
c0 -3 -4 -8 -10 -11 -5 -3 -10 -1 -10 4 0 6 5 11 10 11 6 0 10 -2 10 -4z
m-7320 -32 c0 -8 -4 -14 -10 -14 -5 0 -10 9 -10 21 0 11 5 17 10 14 6 -3 10
-13 10 -21z m3000 16 c0 -5 -2 -10 -4 -10 -3 0 -8 5 -11 10 -3 6 -1 10 4 10 6
0 11 -4 11 -10z m-3555 -10 c3 -5 -1 -10 -10 -10 -9 0 -13 5 -10 10 3 6 8 10
10 10 2 0 7 -4 10 -10z m35 0 c0 -5 -5 -10 -11 -10 -5 0 -7 5 -4 10 3 6 8 10
11 10 2 0 4 -4 4 -10z m1600 -21 c0 -6 -4 -7 -10 -4 -5 3 -10 11 -10 16 0 6 5
7 10 4 6 -3 10 -11 10 -16z m-1065 -29 c3 -5 1 -10 -4 -10 -6 0 -11 5 -11 10
0 6 2 10 4 10 3 0 8 -4 11 -10z m3895 -76 c0 -2 -7 -4 -15 -4 -8 0 -15 4 -15
10 0 5 7 7 15 4 8 -4 15 -8 15 -10z m-575 -4 c3 -5 1 -10 -4 -10 -6 0 -11 5
-11 10 0 6 2 10 4 10 3 0 8 -4 11 -10z m4895 -20 c0 -5 -5 -10 -11 -10 -5 0
-7 5 -4 10 3 6 8 10 11 10 2 0 4 -4 4 -10z m-8220 -50 c0 -5 -8 -10 -17 -10
-15 0 -16 2 -3 10 19 12 20 12 20 0z m-886 -19 c3 -5 -1 -11 -9 -15 -9 -3 -15
0 -15 9 0 16 16 20 24 6z m6711 -1 c-3 -5 -12 -10 -18 -10 -7 0 -6 4 3 10 19
12 23 12 15 0z m-1315 -4 c0 -11 -19 -15 -25 -6 -3 5 1 10 9 10 9 0 16 -2 16
-4z m3516 -33 c-10 -10 -19 5 -10 18 6 11 8 11 12 0 2 -7 1 -15 -2 -18z
m-1896 -13 c0 -5 -12 -10 -27 -10 -22 0 -25 2 -13 10 20 13 40 13 40 0z
m-2245 -18 c-3 -3 -11 0 -18 7 -9 10 -8 11 6 5 10 -3 15 -9 12 -12z m-5433
-44 c-7 -7 -12 -8 -12 -2 0 14 12 26 19 19 2 -3 -1 -11 -7 -17z m9618 12 c0
-5 -5 -10 -11 -10 -5 0 -7 5 -4 10 3 6 8 10 11 10 2 0 4 -4 4 -10z m-4175 -10
c3 -5 -1 -10 -10 -10 -9 0 -13 5 -10 10 3 6 8 10 10 10 2 0 7 -4 10 -10z
m4762 -62 c-3 -8 -6 -5 -6 6 -1 11 2 17 5 13 3 -3 4 -12 1 -19z m-8656 -4 c12
-14 11 -16 -5 -13 -11 2 -21 10 -24 17 -5 17 13 15 29 -4z m5794 -104 c3 -5 2
-10 -4 -10 -5 0 -13 5 -16 10 -3 6 -2 10 4 10 5 0 13 -4 16 -10z m-6215 -50
c0 -5 -4 -10 -10 -10 -5 0 -10 5 -10 10 0 6 5 10 10 10 6 0 10 -4 10 -10z
m205 -18 c-8 -8 -25 10 -19 20 4 6 9 5 15 -3 4 -7 6 -15 4 -17z m765 18 c0 -5
-5 -10 -11 -10 -5 0 -7 5 -4 10 3 6 8 10 11 10 2 0 4 -4 4 -10z m2415 0 c3 -5
2 -10 -4 -10 -5 0 -13 5 -16 10 -3 6 -2 10 4 10 5 0 13 -4 16 -10z m-3418 -7
c-4 -3 -2 -12 5 -20 8 -11 7 -12 -6 -7 -18 7 -22 34 -4 34 6 0 8 -3 5 -7z
m877 -8 c3 -8 1 -15 -3 -15 -5 0 -11 7 -15 15 -3 8 -1 15 3 15 5 0 11 -7 15
-15z m-434 -5 c0 -5 -2 -10 -4 -10 -3 0 -8 5 -11 10 -3 6 -1 10 4 10 6 0 11
-4 11 -10z m7070 1 c0 -6 -4 -12 -8 -15 -5 -3 -9 1 -9 9 0 8 4 15 9 15 4 0 8
-4 8 -9z m154 -7 c5 -14 4 -15 -9 -4 -17 14 -19 20 -6 20 5 0 12 -7 15 -16z
m-6894 2 c0 -3 -4 -8 -10 -11 -5 -3 -10 -1 -10 4 0 6 5 11 10 11 6 0 10 -2 10
-4z m170 -12 c0 -8 -5 -12 -10 -9 -6 4 -8 11 -5 16 9 14 15 11 15 -7z m-840
-4 c0 -5 -4 -10 -10 -10 -5 0 -10 5 -10 10 0 6 5 10 10 10 6 0 10 -4 10 -10z
m5794 4 c9 -3 16 -12 16 -20 0 -20 -13 -17 -28 6 -13 22 -12 23 12 14z m1991
-4 c3 -5 1 -10 -4 -10 -6 0 -11 5 -11 10 0 6 2 10 4 10 3 0 8 -4 11 -10z
m-8314 -31 c-9 -22 -10 -22 -10 -3 -1 11 2 24 6 27 12 12 14 0 4 -24z m5914
-9 c3 -5 1 -10 -4 -10 -6 0 -11 5 -11 10 0 6 2 10 4 10 3 0 8 -4 11 -10z m55
-34 c0 -3 -4 -8 -10 -11 -5 -3 -10 -1 -10 4 0 6 5 11 10 11 6 0 10 -2 10 -4z
m879 -3 c0 -5 -4 -17 -9 -28 -7 -17 -9 -17 -9 -2 -1 9 -5 17 -11 17 -5 0 -10
5 -10 10 0 6 9 10 20 10 11 0 20 -3 19 -7z m-1469 -13 c0 -5 -4 -10 -9 -10 -6
0 -13 5 -16 10 -3 6 1 10 9 10 9 0 16 -4 16 -10z m3410 -10 c0 -5 -4 -10 -10
-10 -5 0 -10 5 -10 10 0 6 5 10 10 10 6 0 10 -4 10 -10z m-2925 -10 c3 -5 1
-10 -4 -10 -6 0 -11 5 -11 10 0 6 2 10 4 10 3 0 8 -4 11 -10z m1052 -66 c-3
-3 -12 -4 -19 -1 -8 3 -5 6 6 6 11 1 17 -2 13 -5z m-350 -40 c-3 -3 -12 -4
-19 -1 -8 3 -5 6 6 6 11 1 17 -2 13 -5z m-2697 -34 c0 -5 -4 -10 -10 -10 -5 0
-10 5 -10 10 0 6 5 10 10 10 6 0 10 -4 10 -10z m2720 -20 c0 -5 -5 -10 -11
-10 -5 0 -7 5 -4 10 3 6 8 10 11 10 2 0 4 -4 4 -10z m1190 -24 c0 -3 -4 -8
-10 -11 -5 -3 -10 -1 -10 4 0 6 5 11 10 11 6 0 10 -2 10 -4z m-3 -62 c-9 -9
-27 6 -27 22 0 13 2 13 16 -1 9 -9 14 -18 11 -21z m-3017 22 c0 -2 -7 -7 -16
-10 -8 -3 -12 -2 -9 4 6 10 25 14 25 6z m-910 -21 c0 -8 -4 -15 -10 -15 -5 0
-7 7 -4 15 4 8 8 15 10 15 2 0 4 -7 4 -15z m950 5 c0 -5 -7 -7 -15 -4 -8 4
-15 8 -15 10 0 2 7 4 15 4 8 0 15 -4 15 -10z m1450 0 c0 -5 -2 -10 -4 -10 -3
0 -8 5 -11 10 -3 6 -1 10 4 10 6 0 11 -4 11 -10z m-4183 -42 c-3 -8 -6 -5 -6
6 -1 11 2 17 5 13 3 -3 4 -12 1 -19z m93 2 c0 -5 -4 -10 -10 -10 -5 0 -10 5
-10 10 0 6 5 10 10 10 6 0 10 -4 10 -10z m4580 -10 c0 -5 -4 -10 -9 -10 -6 0
-13 5 -16 10 -3 6 1 10 9 10 9 0 16 -4 16 -10z m365 0 c3 -5 1 -10 -4 -10 -6
0 -11 5 -11 10 0 6 2 10 4 10 3 0 8 -4 11 -10z m-6911 -30 c10 0 17 -3 13 -6
-10 -10 -68 7 -61 18 4 6 10 6 17 -1 6 -6 20 -11 31 -11z m456 10 c0 -5 -4
-10 -10 -10 -5 0 -10 5 -10 10 0 6 5 10 10 10 6 0 10 -4 10 -10z m-365 -20
c-3 -5 -10 -10 -16 -10 -5 0 -9 5 -9 10 0 6 7 10 16 10 8 0 12 -4 9 -10z
m6492 -6 c-3 -3 -12 -4 -19 -1 -8 3 -5 6 6 6 11 1 17 -2 13 -5z m-1402 -24 c3
-5 1 -10 -4 -10 -6 0 -11 5 -11 10 0 6 2 10 4 10 3 0 8 -4 11 -10z m2401 -37
c-10 -10 -19 5 -10 18 6 11 8 11 12 0 2 -7 1 -15 -2 -18z m-571 7 c3 -5 1 -10
-4 -10 -6 0 -11 5 -11 10 0 6 2 10 4 10 3 0 8 -4 11 -10z m40 -40 c-3 -5 -10
-10 -16 -10 -5 0 -9 5 -9 10 0 6 7 10 16 10 8 0 12 -4 9 -10z m-810 -10 c-3
-5 -10 -10 -16 -10 -5 0 -9 5 -9 10 0 6 7 10 16 10 8 0 12 -4 9 -10z m54 -49
c-6 -2 -15 3 -20 10 -7 11 -9 10 -9 -5 0 -11 -3 -17 -6 -13 -4 3 -4 13 0 22 5
13 9 13 26 3 11 -7 15 -15 9 -17z m1001 -54 c0 -5 -7 -6 -16 -3 -9 3 -18 6
-20 6 -2 0 -4 7 -4 15 0 13 3 13 20 3 11 -7 20 -17 20 -21z m197 -9 c-3 -7 -5
-2 -5 12 0 14 2 19 5 13 2 -7 2 -19 0 -25z m-114 5 c-7 -2 -19 -2 -25 0 -7 3
-2 5 12 5 14 0 19 -2 13 -5z m209 -33 c-3 -25 -9 -39 -16 -37 -12 5 -12 11 -1
40 5 12 2 17 -9 17 -9 0 -16 5 -16 10 0 6 10 10 23 10 20 0 22 -4 19 -40z
m-2982 20 c13 -8 13 -10 -2 -10 -9 0 -20 5 -23 10 -8 13 5 13 25 0z m250 -10
c0 -5 -5 -10 -11 -10 -5 0 -7 5 -4 10 3 6 8 10 11 10 2 0 4 -4 4 -10z m1980
-10 c0 -5 -5 -10 -11 -10 -5 0 -7 5 -4 10 3 6 8 10 11 10 2 0 4 -4 4 -10z
m-2222 -45 c-2 -2 -15 -1 -28 2 l-25 7 25 6 c22 6 39 -4 28 -15z m-298 -10 c0
-8 -2 -15 -4 -15 -2 0 -6 7 -10 15 -3 8 -1 15 4 15 6 0 10 -7 10 -15z m4284
-49 c-3 -9 -12 -12 -21 -9 -11 4 -14 2 -9 -5 4 -7 3 -12 -3 -12 -21 0 -21 21
1 29 33 14 38 13 32 -3z m-3739 -26 c3 -5 1 -10 -4 -10 -6 0 -11 5 -11 10 0 6
2 10 4 10 3 0 8 -4 11 -10z m1640 0 c3 -5 1 -10 -4 -10 -6 0 -11 5 -11 10 0 6
2 10 4 10 3 0 8 -4 11 -10z m2105 -75 c0 -5 -5 -3 -10 5 -5 8 -10 20 -10 25 0
6 5 3 10 -5 5 -8 10 -19 10 -25z m-4027 -22 c-7 -2 -19 -2 -25 0 -7 3 -2 5 12
5 14 0 19 -2 13 -5z m257 -34 c0 -6 -4 -7 -10 -4 -5 3 -10 11 -10 16 0 6 5 7
10 4 6 -3 10 -11 10 -16z m-243 -66 c-3 -10 -5 -4 -5 12 0 17 2 24 5 18 2 -7
2 -21 0 -30z m2583 8 c0 -13 -30 -22 -43 -14 -7 4 -2 10 13 14 14 4 26 7 28 8
1 1 2 -3 2 -8z m-860 -11 c0 -5 -5 -10 -11 -10 -5 0 -7 5 -4 10 3 6 8 10 11
10 2 0 4 -4 4 -10z m-1140 -34 c0 -3 -4 -8 -10 -11 -5 -3 -10 -1 -10 4 0 6 5
11 10 11 6 0 10 -2 10 -4z m2026 -23 c-4 -4 -12 -1 -19 7 -9 10 -9 11 1 6 7
-4 12 -2 13 6 0 11 2 11 6 0 3 -7 2 -16 -1 -19z m-458 10 c-20 -5 -26 -63 -7
-63 5 0 7 -4 4 -10 -13 -21 -21 -8 -24 35 -2 41 0 45 21 44 17 -1 18 -3 6 -6z
m-6176 -45 c-12 -12 -35 -1 -27 12 3 5 13 6 21 3 10 -4 12 -9 6 -15z m6623 2
c3 -5 1 -10 -4 -10 -6 0 -11 5 -11 10 0 6 2 10 4 10 3 0 8 -4 11 -10z m-2350
-90 c3 -6 -1 -7 -9 -4 -18 7 -21 14 -7 14 6 0 13 -4 16 -10z m-265 -12 c0 -4
-4 -8 -9 -8 -4 0 -6 -11 -3 -25 3 -19 0 -25 -13 -25 -14 0 -15 3 -5 15 9 11
10 18 1 28 -6 8 -9 16 -6 19 8 8 35 5 35 -4z m2992 -50 c-6 -6 -9 2 -7 24 4
45 7 49 12 14 3 -16 0 -33 -5 -38z m-5062 31 c0 -5 -7 -9 -15 -9 -8 0 -15 7
-15 15 0 9 6 12 15 9 8 -4 15 -10 15 -15z m1165 11 c-3 -5 -12 -10 -18 -10 -7
0 -6 4 3 10 19 12 23 12 15 0z m3535 -16 c0 -2 -9 -4 -21 -4 -11 0 -18 4 -14
10 5 8 35 3 35 -6z m-4980 2 c0 -3 -4 -8 -10 -11 -5 -3 -10 -1 -10 4 0 6 5 11
10 11 6 0 10 -2 10 -4z m2980 -12 c0 -2 -7 -4 -15 -4 -8 0 -15 4 -15 10 0 5 7
7 15 4 8 -4 15 -8 15 -10z m2970 -19 c0 -9 -9 -15 -25 -15 -31 0 -33 17 -2 23
12 2 23 5 25 6 1 0 2 -6 2 -14z m-487 -2 c-21 -8 -15 -22 7 -16 11 3 20 10 20
15 0 6 7 5 15 -2 8 -7 15 -19 15 -27 0 -12 -3 -13 -14 -4 -7 6 -21 9 -30 5 -9
-3 -23 -4 -31 0 -19 7 -8 36 14 35 10 0 11 -2 4 -6z m336 -27 c-8 -8 -13 -8
-16 2 -3 6 -12 12 -21 13 -13 0 -13 2 3 8 26 11 51 -7 34 -23z m516 24 c3 -5
2 -10 -4 -10 -5 0 -13 5 -16 10 -3 6 -2 10 4 10 5 0 13 -4 16 -10z m-3952 -13
c9 -23 -8 -40 -22 -23 -13 15 -7 36 9 36 4 0 10 -6 13 -13z m3515 -15 c2 -7
-6 -12 -17 -12 -21 0 -27 11 -14 24 9 9 26 2 31 -12z m-3533 -31 c3 -5 1 -12
-5 -16 -5 -3 -10 1 -10 9 0 18 6 21 15 7z m2160 -1 c3 -5 1 -10 -4 -10 -6 0
-11 5 -11 10 0 6 2 10 4 10 3 0 8 -4 11 -10z m-3390 -30 c3 -5 1 -10 -4 -10
-6 0 -11 5 -11 10 0 6 2 10 4 10 3 0 8 -4 11 -10z m3868 -68 c5 -7 7 -15 4
-19 -4 -3 -9 2 -13 11 -3 9 -12 16 -20 16 -17 0 -18 7 -1 24 10 12 13 11 16
-2 2 -10 8 -23 14 -30z m-2373 28 c0 -5 -2 -10 -4 -10 -3 0 -8 5 -11 10 -3 6
-1 10 4 10 6 0 11 -4 11 -10z m-4230 -50 c0 -5 -4 -10 -10 -10 -5 0 -10 5 -10
10 0 6 5 10 10 10 6 0 10 -4 10 -10z m6770 -15 c0 -8 -4 -15 -8 -15 -5 0 -9 7
-9 15 0 8 4 15 9 15 4 0 8 -7 8 -15z m-2530 1 c0 -3 -4 -8 -10 -11 -5 -3 -10
-1 -10 4 0 6 5 11 10 11 6 0 10 -2 10 -4z m-260 -31 c0 -17 -19 -30 -28 -20
-4 4 -1 10 6 12 10 4 10 8 1 19 -10 12 -9 13 5 8 9 -3 16 -12 16 -19z m2825
15 c3 -5 1 -10 -4 -10 -6 0 -11 5 -11 10 0 6 2 10 4 10 3 0 8 -4 11 -10z
m-185 -14 c0 -11 -19 -15 -25 -6 -3 5 1 10 9 10 9 0 16 -2 16 -4z m-3200 -49
c0 -5 -4 -5 -10 -2 -5 3 -10 14 -10 23 0 15 2 15 10 2 5 -8 10 -19 10 -23z
m3417 27 c-3 -3 -12 -4 -19 -1 -8 3 -5 6 6 6 11 1 17 -2 13 -5z m-3761 -32
c-18 -16 -18 -16 -6 6 6 13 14 21 18 18 3 -4 -2 -14 -12 -24z m4224 2 c0 -8
-4 -12 -10 -9 -5 3 -10 13 -10 21 0 8 5 12 10 9 6 -3 10 -13 10 -21z m-3577
-24 c3 6 4 5 3 -2 -4 -18 -28 -16 -34 2 -4 13 -3 13 10 2 11 -9 18 -9 21 -2z
m276 -40 c0 -9 -4 -8 -9 5 -5 11 -9 27 -9 35 0 9 4 8 9 -5 5 -11 9 -27 9 -35z
m-2099 -6 c0 -8 -4 -12 -10 -9 -5 3 -10 10 -10 16 0 5 5 9 10 9 6 0 10 -7 10
-16z m2080 -14 c0 -5 -4 -10 -10 -10 -5 0 -10 5 -10 10 0 6 5 10 10 10 6 0 10
-4 10 -10z m2610 0 c0 -5 -5 -10 -11 -10 -5 0 -7 5 -4 10 3 6 8 10 11 10 2 0
4 -4 4 -10z m-2600 -30 c0 -5 -5 -10 -11 -10 -5 0 -7 5 -4 10 3 6 8 10 11 10
2 0 4 -4 4 -10z m3360 -20 c0 -5 -2 -10 -4 -10 -3 0 -8 5 -11 10 -3 6 -1 10 4
10 6 0 11 -4 11 -10z m-4630 -30 c0 -5 -4 -10 -10 -10 -5 0 -10 5 -10 10 0 6
5 10 10 10 6 0 10 -4 10 -10z m1260 -55 c-7 -9 -15 -13 -19 -10 -3 3 1 10 9
15 21 14 24 12 10 -5z m-2 -64 c-14 -22 -28 -28 -28 -11 0 19 24 50 33 41 5
-5 3 -18 -5 -30z m1462 -61 c0 -5 -2 -10 -4 -10 -3 0 -8 5 -11 10 -3 6 -1 10
4 10 6 0 11 -4 11 -10z m260 -11 c0 -6 -4 -7 -10 -4 -5 3 -10 11 -10 16 0 6 5
7 10 4 6 -3 10 -11 10 -16z m-1445 -49 c-3 -5 -11 -10 -16 -10 -6 0 -7 5 -4
10 3 6 11 10 16 10 6 0 7 -4 4 -10z m2985 -5 c0 -8 -4 -15 -10 -15 -5 0 -10 7
-10 15 0 8 5 15 10 15 6 0 10 -7 10 -15z m-642 -7 c-5 -14 -48 -22 -48 -9 0 8
17 16 43 20 5 0 7 -4 5 -11z m1111 -12 c9 -10 8 -15 -4 -20 -8 -3 -15 -4 -15
-2 0 3 -3 11 -6 20 -8 20 9 21 25 2z m-3714 -16 c-3 -5 -11 -10 -16 -10 -6 0
-7 5 -4 10 3 6 11 10 16 10 6 0 7 -4 4 -10z m255 -9 c0 -5 -7 -14 -15 -21 -13
-10 -15 -9 -15 9 0 12 6 21 15 21 8 0 15 -4 15 -9z m-1207 -16 c4 -8 2 -17 -3
-20 -6 -4 -10 3 -10 14 0 25 6 27 13 6z m47 -15 c0 -5 -2 -10 -4 -10 -3 0 -8
5 -11 10 -3 6 -1 10 4 10 6 0 11 -4 11 -10z m3520 -90 c0 -19 -28 -10 -33 10
-4 17 -2 18 14 9 10 -5 19 -14 19 -19z m-485 10 c11 -18 -15 -42 -31 -29 -10
8 -11 14 -1 24 15 17 24 18 32 5z m1685 -40 c0 -5 -4 -10 -10 -10 -5 0 -10 5
-10 10 0 6 5 10 10 10 6 0 10 -4 10 -10z m-3433 -30 c12 -33 7 -37 -21 -17
-11 8 -15 19 -10 30 9 25 18 21 31 -13z m1313 10 c-19 -13 -30 -13 -30 0 0 6
10 10 23 10 18 0 19 -2 7 -10z m-1560 -90 c0 -11 -4 -20 -10 -20 -5 0 -10 9
-10 20 0 11 5 20 10 20 6 0 10 -9 10 -20z m-716 -16 c9 -23 7 -44 -3 -44 -5 0
-8 8 -7 18 0 9 -4 16 -11 15 -7 -2 -10 4 -7 12 8 20 20 19 28 -1z m4936 -4 c0
-5 -5 -10 -11 -10 -5 0 -7 5 -4 10 3 6 8 10 11 10 2 0 4 -4 4 -10z m-5300 -10
c0 -5 -2 -10 -4 -10 -3 0 -8 5 -11 10 -3 6 -1 10 4 10 6 0 11 -4 11 -10z
m1450 1 c0 -6 -4 -13 -10 -16 -5 -3 -10 1 -10 9 0 9 5 16 10 16 6 0 10 -4 10
-9z m-1770 -12 c0 -4 -8 -13 -17 -20 -10 -7 -15 -9 -11 -5 4 5 3 15 -3 22 -8
10 -6 13 10 11 12 -1 21 -4 21 -8z m330 -29 c0 -5 -5 -10 -11 -10 -5 0 -7 5
-4 10 3 6 8 10 11 10 2 0 4 -4 4 -10z m4966 -6 c-3 -9 -6 -18 -6 -20 0 -3 -4
-3 -10 1 -11 7 -2 35 12 35 6 0 7 -7 4 -16z m-1212 -95 c-6 -11 -24 -2 -24 11
0 5 7 7 15 4 8 -4 12 -10 9 -15z m-4494 -19 c13 -8 13 -10 -2 -10 -9 0 -20 5
-23 10 -8 13 5 13 25 0z m390 -30 c0 -5 -2 -10 -4 -10 -3 0 -8 5 -11 10 -3 6
-1 10 4 10 6 0 11 -4 11 -10z m360 -140 c0 -5 -5 -10 -11 -10 -5 0 -7 5 -4 10
3 6 8 10 11 10 2 0 4 -4 4 -10z m4366 -27 c-4 -4 -11 -1 -16 7 -16 25 -11 35
7 17 9 -9 13 -20 9 -24z m444 22 c11 -13 10 -14 -4 -9 -9 3 -16 10 -16 15 0
13 6 11 20 -6z m-3008 -40 c0 -5 -5 -11 -11 -13 -6 -2 -11 4 -11 13 0 9 5 15
11 13 6 -2 11 -8 11 -13z m2633 -26 c11 -16 2 -17 -25 -2 -24 12 -24 13 -3 13
12 0 25 -5 28 -11z m-6359 -96 c-10 -10 -19 5 -10 18 6 11 8 11 12 0 2 -7 1
-15 -2 -18z m3891 -35 c-3 -8 -6 -5 -6 6 -1 11 2 17 5 13 3 -3 4 -12 1 -19z
m-2317 -27 c0 -5 -7 -12 -16 -15 -14 -5 -15 -4 -4 9 14 17 20 19 20 6z m4950
-5 c0 -2 -7 -6 -15 -10 -8 -3 -15 -1 -15 4 0 6 7 10 15 10 8 0 15 -2 15 -4z
m520 -56 c0 -5 -5 -10 -11 -10 -5 0 -7 5 -4 10 3 6 8 10 11 10 2 0 4 -4 4 -10z
m-2993 -56 c-3 -3 -12 -4 -19 -1 -8 3 -5 6 6 6 11 1 17 -2 13 -5z m-4067 -24
c0 -5 -2 -10 -4 -10 -3 0 -8 5 -11 10 -3 6 -1 10 4 10 6 0 11 -4 11 -10z
m3727 -22 c-3 -7 -5 -2 -5 12 0 14 2 19 5 13 2 -7 2 -19 0 -25z m2558 -38 c-3
-5 -10 -10 -16 -10 -5 0 -9 5 -9 10 0 6 7 10 16 10 8 0 12 -4 9 -10z m-2065
-76 c0 -8 -4 -12 -10 -9 -5 3 -10 10 -10 16 0 5 5 9 10 9 6 0 10 -7 10 -16z
m50 -44 c0 -11 0 -23 1 -27 0 -5 -8 -9 -18 -10 -15 -2 -15 -1 2 6 l20 10 -20
1 c-11 1 -15 4 -8 6 7 3 9 12 6 20 -3 8 0 14 6 14 6 0 11 -9 11 -20z m2148 3
c-10 -2 -15 -10 -11 -19 6 -17 -5 -69 -14 -61 -3 3 -7 23 -8 44 -3 36 -1 39
23 40 15 0 19 -1 10 -4z m-2488 -42 c0 -5 -7 -11 -15 -15 -15 -5 -20 5 -8 17
9 10 23 9 23 -2z m3420 -51 c0 -5 -7 -10 -15 -10 -8 0 -15 5 -15 10 0 6 7 10
15 10 8 0 15 -4 15 -10z m-2983 -22 c-3 -8 -6 -5 -6 6 -1 11 2 17 5 13 3 -3 4
-12 1 -19z m2063 -18 c0 -5 -5 -10 -11 -10 -5 0 -7 5 -4 10 3 6 8 10 11 10 2
0 4 -4 4 -10z m-6430 -24 c0 -3 -4 -8 -10 -11 -5 -3 -10 -1 -10 4 0 6 5 11 10
11 6 0 10 -2 10 -4z m6633 -6 c8 0 8 -3 1 -10 -12 -12 -44 -3 -44 12 0 6 7 7
16 4 9 -3 21 -6 27 -6z m-2023 -160 c0 -5 -5 -10 -11 -10 -5 0 -7 5 -4 10 3 6
8 10 11 10 2 0 4 -4 4 -10z m-270 -134 c0 -3 -4 -8 -10 -11 -5 -3 -10 -1 -10
4 0 6 5 11 10 11 6 0 10 -2 10 -4z m140 -166 c0 -5 -7 -7 -15 -4 -8 4 -12 10
-9 15 6 11 24 2 24 -11z m1450 -121 c0 -5 -4 -9 -10 -9 -5 0 -10 7 -10 16 0 8
5 12 10 9 6 -3 10 -10 10 -16z m155 -127 c-2 -3 -11 1 -20 8 -12 10 -15 10
-15 0 0 -8 -3 -10 -6 -7 -4 4 -1 14 7 23 12 14 14 14 26 -2 7 -10 11 -20 8
-22z m60 -182 c3 -5 1 -10 -4 -10 -6 0 -11 5 -11 10 0 6 2 10 4 10 3 0 8 -4
11 -10z m-3405 -194 c42 -8 111 -28 155 -45 95 -38 420 -214 520 -281 39 -26
108 -71 155 -100 127 -78 310 -218 356 -272 60 -71 161 -246 195 -338 23 -64
59 -222 59 -260 0 -3 33 -12 73 -18 40 -6 95 -20 121 -31 39 -17 51 -29 67
-67 15 -32 19 -56 14 -81 -3 -19 -1 -58 6 -87 10 -47 15 -54 45 -65 21 -8 75
-11 143 -9 l109 3 59 -41 c99 -70 230 -129 429 -193 220 -70 299 -103 385
-161 33 -23 105 -61 160 -85 149 -65 196 -105 253 -213 25 -50 62 -137 82
-194 20 -57 53 -144 74 -193 92 -215 163 -455 175 -590 4 -38 16 -135 27 -215
23 -171 19 -295 -17 -483 l-23 -120 19 -92 c10 -51 25 -107 33 -126 40 -96
199 -717 226 -884 21 -126 25 -279 10 -355 -14 -70 35 -245 139 -501 28 -69
51 -140 51 -158 0 -37 -18 -75 -71 -150 -22 -30 -39 -59 -39 -64 0 -5 14 -38
31 -73 36 -77 61 -187 49 -219 -10 -27 -29 -35 -84 -35 l-43 0 -31 -68 c-17
-38 -40 -101 -52 -141 -12 -40 -33 -84 -45 -99 -12 -15 -24 -36 -26 -47 -5
-26 -46 -46 -86 -42 -31 3 -33 1 -49 -48 -9 -27 -29 -77 -44 -110 -14 -33 -32
-82 -39 -109 -27 -110 -93 -211 -164 -255 -18 -10 -56 -24 -85 -30 -66 -14
-100 -31 -168 -86 -61 -50 -135 -94 -326 -194 -146 -77 -277 -117 -458 -141
-47 -6 -177 -25 -290 -42 -113 -16 -242 -32 -287 -35 -82 -5 -83 -6 -83 -33 0
-41 -59 -147 -109 -197 -68 -66 -148 -101 -287 -124 -165 -28 -240 -56 -459
-169 -104 -54 -215 -105 -245 -113 -99 -28 -228 -40 -339 -33 -385 24 -644 91
-1063 274 -135 59 -224 115 -331 210 -26 23 -52 42 -57 42 -5 0 -34 20 -64 45
-32 26 -92 59 -143 80 -48 19 -105 49 -127 67 l-39 31 -192 -7 c-256 -8 -336
-20 -480 -66 -66 -22 -174 -53 -240 -70 -368 -95 -813 -7 -1021 200 -184 183
-281 534 -230 827 18 101 51 167 118 236 97 98 289 168 371 134 18 -8 55 -17
82 -21 28 -4 72 -17 98 -28 50 -22 100 -22 305 -1 l62 6 -83 81 c-83 80 -84
82 -117 181 -36 110 -91 229 -173 377 -60 106 -200 277 -417 510 -104 111
-144 161 -173 220 l-39 75 11 71 c6 39 27 124 47 189 20 65 42 141 48 168 7
28 18 60 24 71 18 33 77 81 116 94 l36 11 -24 47 c-13 26 -130 272 -259 547
-323 687 -610 1291 -804 1693 -34 71 -45 105 -46 145 -1 69 29 121 80 138 56
18 358 8 1063 -36 135 -9 283 -20 330 -25 47 -6 180 -15 295 -20 116 -6 280
-17 365 -25 85 -8 202 -20 260 -25 125 -12 723 -50 727 -46 4 4 -57 86 -103
139 -151 171 -189 459 -88 659 19 38 35 104 59 243 74 426 159 715 261 887 64
107 144 186 278 278 61 41 140 96 176 121 114 79 394 165 625 192 65 8 133 6
205 -7z m2480 -766 c0 -5 -5 -10 -11 -10 -5 0 -7 5 -4 10 3 6 8 10 11 10 2 0
4 -4 4 -10z m10 -376 c0 -8 -4 -12 -10 -9 -5 3 -10 13 -10 21 0 8 5 12 10 9 6
-3 10 -13 10 -21z m-13 -256 c-3 -8 -6 -5 -6 6 -1 11 2 17 5 13 3 -3 4 -12 1
-19z m3 -78 c0 -5 -5 -10 -11 -10 -5 0 -7 5 -4 10 3 6 8 10 11 10 2 0 4 -4 4
-10z"/>
<path d="M9788 10841 c-83 -18 -113 -27 -303 -88 -108 -34 -268 -112 -335
-162 -89 -67 -251 -232 -311 -317 -32 -45 -72 -118 -92 -169 -38 -97 -168
-639 -217 -905 -5 -25 -25 -90 -44 -145 -43 -122 -46 -183 -12 -289 34 -106
82 -186 186 -306 51 -58 96 -113 101 -122 12 -22 -5 -23 -196 -8 -71 5 -402
28 -735 50 -333 22 -834 56 -1115 75 -280 19 -633 43 -782 52 l-273 17 -40
-39 c-23 -23 -40 -48 -40 -62 0 -19 136 -320 333 -733 111 -235 809 -1715 814
-1727 3 -8 -3 -13 -16 -13 -33 0 -93 -28 -123 -57 -15 -14 -34 -47 -42 -72
-27 -83 -96 -397 -96 -437 0 -51 21 -83 137 -212 54 -59 136 -156 183 -216 47
-60 109 -136 139 -170 179 -204 266 -349 330 -551 39 -123 76 -176 181 -258
l79 -62 -42 -6 c-23 -4 -112 -12 -198 -19 -139 -12 -161 -11 -190 2 -71 33
-167 50 -279 52 -68 0 -81 -3 -147 -38 -104 -55 -147 -96 -188 -179 -40 -84
-57 -176 -58 -322 -1 -140 27 -246 109 -413 100 -202 181 -277 376 -347 121
-42 333 -78 468 -79 123 0 182 12 417 88 264 85 285 89 563 95 l245 6 27 -31
c17 -20 62 -46 115 -69 49 -21 108 -55 132 -76 24 -22 53 -39 63 -39 11 0 60
-38 109 -84 100 -94 168 -133 404 -234 342 -146 658 -215 985 -216 192 -1 229
9 468 131 112 58 222 111 245 119 23 9 110 28 192 44 230 43 296 74 387 181
56 67 64 82 72 142 l7 47 58 0 c54 0 267 27 391 49 30 6 108 15 173 21 122 12
199 31 379 95 198 71 317 135 436 232 72 59 120 84 209 107 93 25 157 107 203
266 12 41 43 123 69 183 l46 107 30 -7 c64 -15 78 -10 89 27 6 19 18 42 28 50
11 8 32 61 49 119 16 58 39 126 50 151 20 46 22 48 71 53 27 4 56 12 64 18 34
28 -2 136 -76 229 l-30 38 21 34 c11 18 40 65 65 103 55 89 56 120 7 235 -55
129 -101 262 -129 374 -25 97 -26 105 -14 198 11 83 11 115 -4 235 -22 174
-35 235 -96 458 -27 99 -83 306 -124 460 l-75 280 26 100 c26 93 27 112 26
290 -2 162 -6 214 -31 350 -34 186 -95 417 -147 560 -20 55 -52 152 -72 215
-45 148 -111 276 -170 331 -43 40 -234 139 -267 139 -9 0 -37 16 -63 37 -63
48 -151 87 -265 118 -95 25 -189 59 -243 88 -16 9 -68 33 -115 52 -47 19 -114
58 -149 85 -74 57 -113 68 -191 52 -60 -12 -193 -3 -210 14 -16 16 -40 142
-40 210 0 91 -35 115 -181 122 l-96 5 -7 67 c-6 69 -66 277 -105 365 -26 58
-105 166 -163 221 -130 124 -611 431 -857 546 -216 101 -386 128 -563 89z
m263 -1356 c67 -72 212 -131 234 -95 3 5 -1 23 -10 39 -8 17 -15 33 -15 36 0
19 181 -107 228 -158 l24 -25 -39 -6 c-21 -3 -58 -9 -83 -11 -25 -3 -54 -8
-65 -11 -11 -4 -2 8 20 25 22 17 46 31 53 31 6 0 12 7 12 15 0 24 -47 37 -135
38 -73 1 -86 -2 -155 -37 -119 -60 -187 -111 -302 -226 -97 -98 -112 -110
-173 -130 -73 -24 -127 -23 -207 6 -29 10 -71 14 -127 12 -79 -2 -84 -1 -97
22 -12 22 -54 144 -54 157 0 2 14 -5 30 -17 25 -17 34 -19 45 -10 11 9 12 17
5 30 -13 24 -13 141 0 160 9 13 11 13 20 0 13 -21 30 -104 30 -150 0 -32 4
-40 18 -40 19 0 64 100 77 172 l7 38 45 -40 c49 -43 123 -76 149 -66 15 6 15
9 -3 29 -25 27 -48 71 -61 117 l-9 36 46 -23 c49 -24 91 -30 91 -13 0 6 -8 23
-17 38 l-18 27 38 -30 c21 -17 51 -51 67 -77 17 -27 36 -48 44 -48 16 0 30 61
21 90 -8 26 -2 25 44 -5 53 -36 95 -20 51 20 -11 10 -20 23 -20 28 0 19 40
-26 57 -65 35 -80 82 -16 84 115 1 26 3 47 5 47 2 0 22 -20 45 -45z m-123 8
c6 -10 13 -34 17 -53 l8 -35 -44 45 c-35 35 -41 46 -29 52 25 11 39 9 48 -9z
m-236 -20 c8 -10 18 -26 21 -36 5 -14 -3 -11 -33 13 -22 17 -40 34 -40 36 0
12 39 2 52 -13z m-215 -70 c6 -32 14 -67 19 -78 12 -34 -44 23 -73 73 -28 47
-22 62 22 62 17 0 22 -10 32 -57z m-152 -16 c4 -18 5 -51 3 -72 l-3 -40 -14
43 c-8 24 -25 51 -37 61 l-23 18 22 11 c36 18 46 14 52 -21z m-146 -64 c-4
-27 -9 -59 -11 -73 l-3 -24 -18 27 c-10 15 -20 40 -23 55 -5 25 -1 31 28 45
18 9 34 17 34 17 1 0 -2 -21 -7 -47z m-73 -195 c9 -27 14 -51 11 -54 -13 -13
-117 142 -117 175 0 5 15 18 33 28 l32 19 12 -59 c7 -33 20 -82 29 -109z
m-119 59 c7 -25 7 -36 -3 -45 -11 -10 -17 -9 -31 8 -10 11 -20 20 -24 20 -4 0
-6 -34 -6 -74 1 -41 -2 -78 -6 -83 -11 -11 -27 17 -27 49 0 29 -15 46 -22 25
-3 -6 -4 -28 -2 -47 4 -53 -12 -71 -19 -22 -9 53 12 102 68 158 25 24 48 44
53 44 5 0 13 -15 19 -33z m1552 -52 c11 -33 11 -58 2 -139 -7 -54 -16 -109
-21 -122 -12 -31 -130 -90 -286 -143 -169 -57 -166 -58 -284 38 -136 109 -184
198 -94 172 48 -14 90 8 170 88 51 51 78 71 85 64 7 -7 -2 -19 -26 -37 -41
-31 -109 -129 -103 -147 2 -7 18 10 35 37 85 131 210 183 307 126 42 -25 46
-26 46 -12 0 5 -19 19 -42 31 -35 18 -53 20 -107 16 -37 -4 -73 -7 -81 -9 -8
-2 -17 1 -20 6 -11 21 265 76 360 73 43 -2 46 -4 59 -42z m228 -270 c46 -102
64 -166 53 -195 -5 -14 -12 -49 -15 -80 -3 -19 -6 -44 -8 -55 -2 -11 2 -35 10
-53 23 -56 40 -155 32 -192 -5 -19 -9 -50 -11 -67 -1 -18 -5 -33 -9 -33 -4 0
-10 -16 -13 -35 -4 -19 -16 -41 -26 -48 -11 -8 -17 -16 -14 -19 3 -4 -3 -23
-14 -45 -11 -21 -17 -44 -15 -51 3 -7 -1 -10 -10 -6 -12 4 -14 0 -10 -14 3
-12 -2 -25 -14 -33 -11 -8 -30 -36 -44 -64 -13 -27 -31 -56 -40 -62 -16 -12
-34 -58 -31 -75 1 -5 -4 -8 -11 -8 -6 0 -21 -14 -32 -30 -11 -17 -32 -36 -48
-43 -15 -6 -30 -20 -33 -30 -3 -9 -9 -15 -14 -12 -4 3 -13 -2 -20 -10 -14 -17
-46 -20 -55 -5 -5 8 -11 8 -19 1 -7 -6 -22 -8 -34 -4 -13 3 -22 1 -22 -6 0 -7
-10 -5 -25 6 -13 10 -23 23 -20 29 2 7 -3 21 -11 32 -11 16 -11 22 -1 26 9 5
9 7 0 12 -9 4 -10 11 -2 25 5 11 6 18 2 17 -28 -10 -8 19 55 77 82 76 95 104
25 52 -74 -54 -182 -91 -255 -88 -16 1 -28 -3 -28 -8 0 -5 -25 -9 -55 -8 -32
2 -54 -2 -52 -7 4 -13 65 -34 99 -35 34 -1 59 -11 53 -21 -2 -4 4 -15 15 -25
14 -12 17 -22 10 -30 -10 -12 8 -65 23 -65 4 0 3 -9 -3 -20 -6 -11 -7 -20 -3
-20 4 0 -2 -7 -13 -15 -12 -8 -32 -13 -45 -12 -23 2 -82 37 -104 61 -5 6 -29
25 -52 42 -24 17 -39 34 -35 39 4 4 0 6 -8 3 -8 -2 -26 6 -39 18 -16 15 -28
20 -32 13 -5 -8 -9 -8 -13 0 -4 6 -12 9 -17 5 -5 -3 -9 -2 -8 3 4 21 -2 33
-17 33 -8 0 -20 14 -25 30 -7 19 -18 30 -29 30 -10 0 -20 5 -22 11 -2 5 -10
11 -18 13 -8 1 -26 8 -38 15 -13 7 -26 10 -30 7 -8 -9 -42 25 -42 43 0 12 -2
13 -8 3 -13 -20 -83 83 -158 232 -36 72 -82 159 -101 193 -34 62 -36 83 -7 83
23 0 276 99 304 119 l25 18 -3 -164 c-3 -137 -1 -168 12 -189 25 -37 62 -56
124 -63 46 -5 59 -10 67 -28 5 -12 25 -28 45 -36 l35 -13 -34 -21 c-18 -12
-60 -24 -92 -28 -57 -7 -139 1 -139 13 0 3 10 16 22 29 12 13 18 26 14 30 -13
13 -86 -74 -86 -102 0 -29 -2 -28 38 -14 21 7 57 7 119 0 144 -17 208 -63 184
-132 -10 -30 2 -50 16 -25 5 10 39 17 103 24 136 13 235 54 322 132 61 55 70
69 112 169 25 60 46 119 46 132 0 45 34 121 69 151 38 34 31 48 -26 48 -40 0
-108 -31 -91 -41 6 -4 22 0 35 8 70 46 4 -46 -125 -174 -77 -78 -116 -102
-202 -126 -64 -18 -168 -36 -174 -29 -3 2 6 16 20 30 13 15 24 32 24 38 0 6 9
22 20 36 l19 25 -42 -11 c-23 -6 -45 -15 -49 -21 -5 -6 -8 -3 -8 7 0 10 21 27
58 44 60 29 102 61 102 77 0 14 -31 47 -43 47 -5 0 -7 -8 -4 -19 7 -29 -11
-50 -51 -57 -22 -4 -55 -23 -82 -47 -61 -54 -114 -77 -180 -77 -77 0 -97 8
-120 45 -17 28 -20 44 -15 92 17 182 23 312 18 424 -5 119 -5 127 14 137 22
12 54 -4 85 -44 10 -12 62 -58 117 -102 157 -127 190 -128 463 -16 310 126
298 114 298 308 l0 141 41 -75 c23 -41 66 -129 96 -195z m-1682 185 c4 -6 29
-26 57 -44 l51 -35 -43 -11 c-23 -6 -44 -9 -47 -7 -12 12 -42 107 -34 107 6 0
13 -5 16 -10z m-18 -116 c2 0 -15 -12 -36 -26 l-40 -26 -14 43 c-8 23 -12 54
-10 69 l6 28 46 -44 c25 -24 47 -43 48 -44z m281 -103 c32 -1 19 -18 -20 -27
-44 -9 -97 -44 -136 -88 -33 -38 -38 -51 -23 -61 5 -3 12 3 16 14 7 22 72 84
107 101 12 6 4 -5 -19 -25 -50 -43 -93 -107 -75 -113 7 -2 12 -10 12 -17 0
-18 83 -57 134 -62 49 -6 86 10 143 60 24 22 33 26 26 12 -16 -29 -78 -78
-116 -92 -54 -19 -121 -16 -151 8 -15 12 -30 18 -34 14 -8 -8 37 -44 56 -45
29 0 8 -17 -33 -27 -25 -6 -44 -8 -41 -5 10 9 -38 89 -90 149 -42 48 -84 122
-84 148 0 2 153 60 179 67 7 2 39 1 70 -3 31 -4 66 -8 79 -8z m178 -16 c3 -20
5 -38 3 -40 -2 -2 -17 8 -33 21 -27 24 -28 26 -10 39 28 21 32 19 40 -20z
m-36 -40 c14 -8 21 -14 15 -14 -5 0 -21 6 -35 14 -14 8 -20 14 -15 14 6 0 21
-6 35 -14z m-13 -28 c15 -13 36 -27 46 -30 28 -10 18 -29 -46 -85 -81 -70
-138 -79 -214 -32 -44 26 -43 59 0 103 70 69 160 88 214 44z m-3271 -584 c-4
-8 -13 -13 -20 -10 -10 4 -16 -2 -18 -16 -2 -12 -10 -22 -18 -22 -11 0 -14 10
-13 40 2 29 0 36 -7 25 -8 -13 -10 -13 -10 1 0 22 11 31 25 19 10 -8 12 -1 10
32 -2 24 -6 54 -9 68 -3 14 10 -8 30 -48 19 -41 33 -81 30 -89z m-96 77 c12
-23 8 -25 -20 -8 -29 19 -34 3 -12 -39 34 -66 52 -113 44 -113 -5 0 -23 34
-41 75 -27 61 -31 78 -21 90 17 21 37 19 50 -5z m-3 -52 c-3 -8 -6 -5 -6 6 -1
11 2 17 5 13 3 -3 4 -12 1 -19z m4987 -303 c25 -60 46 -119 46 -129 0 -11 -11
-37 -26 -57 -21 -30 -36 -40 -87 -53 -34 -10 -79 -24 -100 -32 -50 -19 -54
-18 -71 14 -8 15 -27 40 -41 55 -22 23 -24 31 -14 43 7 8 19 12 28 9 13 -4 12
-2 -1 9 -10 7 -18 22 -18 32 1 18 1 18 14 1 12 -16 14 -16 20 -1 3 8 6 25 6
36 0 10 7 27 16 35 10 10 12 18 5 22 -18 12 5 34 28 26 12 -4 21 -2 21 4 0 21
2 26 13 40 9 12 9 13 -1 7 -9 -6 -12 -1 -10 16 5 31 17 50 29 43 5 -4 9 -1 9
4 0 6 -4 11 -9 11 -8 0 -8 28 -1 38 3 3 7 19 9 32 0 6 7 10 14 10 8 0 14 6 14
14 0 8 -6 12 -14 9 -11 -4 -11 0 -3 22 7 19 7 31 0 40 -5 6 -7 15 -3 18 3 4
23 -41 43 -101 21 -59 58 -156 84 -217z m-714 275 c-13 -24 -76 -72 -135 -103
-29 -15 -35 -22 -23 -25 25 -5 112 45 169 96 l49 43 -27 -58 c-32 -72 -41 -85
-97 -143 -65 -68 -143 -106 -249 -121 -97 -13 -110 -9 -122 41 -6 24 -2 26 60
44 61 17 122 52 111 63 -2 2 -28 -5 -58 -17 -29 -12 -63 -26 -76 -31 -34 -13
-86 -11 -108 5 -19 15 -19 15 1 30 28 22 128 52 200 61 85 10 197 52 258 96
61 45 61 45 47 19z m-4304 -74 c13 -9 24 -22 24 -28 0 -6 -10 -3 -22 8 -21 19
-21 19 -14 0 3 -10 4 -28 0 -39 -6 -20 -7 -20 -21 -1 -15 18 -15 17 -9 -9 9
-36 -1 -52 -22 -35 -13 11 -15 9 -9 -17 l7 -30 -15 28 c-20 34 -28 35 -15 1
17 -43 10 -41 -15 6 -26 48 -35 93 -10 50 8 -14 14 -21 15 -16 0 5 6 4 13 -2
10 -9 16 -4 26 23 14 39 25 44 40 18 17 -29 12 -8 -9 42 -21 49 -27 81 -10 55
8 -12 10 -10 12 10 1 16 3 11 5 -12 3 -25 12 -41 29 -52z m3806 38 c-12 -8
-28 -13 -35 -11 -7 3 -1 9 13 15 37 16 47 14 22 -4z m-3956 -65 c-13 -19 -12
-27 15 -86 16 -36 27 -68 24 -71 -3 -3 -17 22 -32 56 -19 43 -32 61 -42 57
-15 -6 -10 2 28 48 20 24 25 21 7 -4z m4989 -139 c3 -5 1 -10 -4 -10 -6 0 -11
5 -11 10 0 6 2 10 4 10 3 0 8 -4 11 -10z m-59 -1655 c318 -51 351 -55 437 -52
l88 2 45 -50 c51 -57 104 -142 104 -167 0 -10 -21 -41 -47 -70 l-47 -53 -110
-1 c-89 0 -122 -5 -166 -22 -69 -28 -76 -28 -155 4 -62 25 -69 26 -127 14 -74
-14 -93 -26 -180 -106 -67 -63 -111 -84 -174 -84 -17 0 -33 3 -37 6 -18 18
255 274 292 274 6 0 27 9 48 20 21 10 63 26 93 33 55 14 80 37 39 37 -21 0
-50 -7 -141 -32 -24 -6 -53 -10 -65 -9 -61 6 -223 -112 -277 -204 -25 -42 -98
-95 -140 -102 -45 -7 -45 0 -2 74 18 32 53 97 76 146 23 48 45 87 48 87 4 0
56 27 115 60 60 33 119 63 133 66 13 3 27 11 31 17 11 17 -68 1 -119 -24 -180
-92 -179 -91 -219 -150 -21 -32 -54 -92 -73 -133 -35 -76 -55 -95 -118 -110
-74 -17 -76 29 -3 140 30 46 61 96 69 111 8 16 27 41 43 57 27 27 309 177 346
184 9 2 17 8 17 14 0 21 -68 -1 -212 -72 -163 -79 -176 -91 -280 -243 -33 -48
-65 -86 -71 -84 -7 2 -16 18 -21 35 -8 29 -5 36 35 79 24 27 62 70 84 98 72
90 88 105 109 105 12 0 35 7 51 16 17 9 58 27 93 40 35 14 85 35 110 49 59 31
83 31 278 0z"/>
<path d="M10172 9067 c-49 -18 -95 -59 -137 -122 -38 -58 -40 -93 -1 -41 76
105 135 146 212 146 53 0 111 -24 119 -50 6 -18 -24 -79 -58 -117 -27 -30
-106 -47 -193 -40 -53 4 -77 2 -91 -9 -16 -12 -15 -13 17 -15 32 -1 33 -2 10
-9 l-25 -7 30 -13 c17 -7 64 -13 105 -14 97 0 165 32 174 84 1 3 11 20 24 37
28 39 38 93 23 121 -26 49 -136 75 -209 49z m153 -217 c-4 -6 -24 -19 -45 -30
-31 -16 -57 -20 -122 -18 l-83 1 80 7 c48 4 98 15 125 27 55 26 53 25 45 13z"/>
<path d="M10182 9004 c-44 -31 -17 -114 37 -114 36 0 81 41 81 74 0 29 -33 56
-70 56 -14 0 -36 -7 -48 -16z m63 -24 c3 -5 -1 -10 -9 -10 -9 0 -16 5 -16 10
0 6 4 10 9 10 6 0 13 -4 16 -10z"/>
<path d="M9375 8735 c-21 -21 -26 -31 -20 -53 12 -50 59 -67 103 -36 26 18 29
59 6 92 -20 29 -55 28 -89 -3z m65 -15 c0 -5 -4 -10 -10 -10 -5 0 -10 5 -10
10 0 6 5 10 10 10 6 0 10 -4 10 -10z"/>
<path d="M6140 8139 c0 -5 5 -7 10 -4 6 3 10 8 10 11 0 2 -4 4 -10 4 -5 0 -10
-5 -10 -11z"/>
<path d="M10877 7833 c-4 -3 -7 -11 -7 -17 0 -6 5 -5 12 2 6 6 9 14 7 17 -3 3
-9 2 -12 -2z"/>
<path d="M6010 8015 c0 -5 5 -17 10 -25 5 -8 10 -10 10 -5 0 6 -5 17 -10 25
-5 8 -10 11 -10 5z"/>
</g>
</svg>
